<?xml version="1.0" encoding="UTF-8" standalone="no"?><svg xmlns="http://www.w3.org/2000/svg" xmlns:xlink="http://www.w3.org/1999/xlink" data-name="Layer 2" fill="#000000" height="318.1" preserveAspectRatio="xMidYMid meet" version="1" viewBox="-0.1 -0.1 266.6 318.1" width="266.6" zoomAndPan="magnify"><g id="change1_1"><path d="M133.245,156.7a1.492,1.492,0,0,1-.754-.2L.746,79.9a1.5,1.5,0,0,1,.005-2.6L134.539.2a1.5,1.5,0,0,1,1.515.01l129.7,77.106a1.5,1.5,0,0,1-.013,2.587L134,156.5A1.5,1.5,0,0,1,133.245,156.7ZM4.494,78.613l128.751,74.855L262.029,78.593,135.276,3.239Z" fill="#000000"/></g><g id="change1_2"><path d="M133.245,318.064a1.5,1.5,0,0,1-.773-.214L.728,238.7A1.5,1.5,0,0,1,0,237.415V78.607a1.5,1.5,0,0,1,3,0V236.566l130.21,78.228,130.279-85.338V78.607a1.5,1.5,0,0,1,3,0V230.266a1.5,1.5,0,0,1-.677,1.255l-131.746,86.3A1.5,1.5,0,0,1,133.245,318.064Z" fill="#000000"/></g><g id="change1_3"><path d="M75.543,185.808a1.49,1.49,0,0,1-.682-.164L.818,147.857a1.5,1.5,0,0,1,.428-2.814l88.408-15.215L60.877,44.043a1.5,1.5,0,0,1,2.209-1.754l70.169,43.243L205.274,42.28a1.5,1.5,0,0,1,2.194,1.766l-29.11,86.234a1.5,1.5,0,1,1-2.841-.96l27.8-82.367-69.3,41.621a1.5,1.5,0,0,1-1.559-.01L65.039,47.016l28.016,83.517a1.5,1.5,0,0,1-1.168,1.955L6.2,147.235l69.348,35.392,57.023-28.764a1.5,1.5,0,0,1,1.287-.03L193,180.256a1.5,1.5,0,1,1-1.224,2.738l-58.5-26.131L76.218,185.647A1.49,1.49,0,0,1,75.543,185.808Z" fill="#000000"/></g><g id="change1_4"><path d="M133.245,318.064a1.5,1.5,0,0,1-1.5-1.5V87.287a1.5,1.5,0,0,1,3,0V316.564A1.5,1.5,0,0,1,133.245,318.064Z" fill="#000000"/></g><g id="change1_5"><path d="M75.541,283.4a1.5,1.5,0,0,1-1.257-2.316l57.7-88.908a1.5,1.5,0,0,1,2.5-.033l55.805,81.306.607-91.832a1.5,1.5,0,0,1,.854-1.345l68.5-32.638-83.6-16.36a1.5,1.5,0,0,1,.577-2.945l88.051,17.233a1.5,1.5,0,0,1,.358,2.826l-71.748,34.189-.632,95.672a1.5,1.5,0,0,1-2.736.839l-57.24-83.4L76.8,282.715A1.5,1.5,0,0,1,75.541,283.4Z" fill="#000000"/></g><g id="change1_6"><path d="M75.543,283.4a1.5,1.5,0,0,1-1.5-1.5v-97.59a1.5,1.5,0,0,1,3,0V281.9A1.5,1.5,0,0,1,75.543,283.4Z" fill="#000000"/></g></svg>