<?xml version="1.0" encoding="UTF-8" standalone="no"?><svg xmlns="http://www.w3.org/2000/svg" xmlns:xlink="http://www.w3.org/1999/xlink" data-name="Layer 2" fill="#000000" height="318.6" preserveAspectRatio="xMidYMid meet" version="1" viewBox="-0.0 -0.1 302.4 318.6" width="302.4" zoomAndPan="magnify"><g id="change1_1"><path d="M164.2,162.906a1.513,1.513,0,0,1-.766-.21L26.765,81.5a1.5,1.5,0,0,1,.022-2.592L164.38.2a1.5,1.5,0,0,1,1.5.005L301.612,78.916a1.5,1.5,0,0,1,.014,2.587L164.962,162.7A1.514,1.514,0,0,1,164.2,162.906ZM30.509,80.238,164.2,159.661,297.9,80.229l-132.776-77Z" fill="#000000"/></g><g id="change1_2"><path d="M67.817,290.583a1.5,1.5,0,0,1-.714-.181L.785,254.453A1.5,1.5,0,0,1,0,253.135V175.454a1.5,1.5,0,0,1,2.208-1.322l66.318,35.535a1.5,1.5,0,0,1,.791,1.323v78.093a1.5,1.5,0,0,1-1.5,1.5ZM3,252.242l63.317,34.322V211.888L3,177.96Z" fill="#000000"/></g><g id="change1_3"><path d="M27.531,190.9a1.5,1.5,0,0,1-1.5-1.5V80.213a1.5,1.5,0,0,1,3,0V189.4A1.5,1.5,0,0,1,27.531,190.9Z" fill="#000000"/></g><g id="change1_4"><path d="M164.2,318.474h0a1.5,1.5,0,0,1-1.5-1.5l.918-311.46L28.661,159.914a1.5,1.5,0,0,1-2.259-1.975L164,.513a1.5,1.5,0,0,1,2.63.991l-.93,315.475A1.5,1.5,0,0,1,164.2,318.474Z" fill="#000000"/></g><g id="change1_5"><path d="M67.815,265.171a1.5,1.5,0,0,1-.145-2.993l231.689-22.8V80.213a1.5,1.5,0,0,1,3,0V240.74a1.5,1.5,0,0,1-1.353,1.493L67.964,265.164A1.472,1.472,0,0,1,67.815,265.171Z" fill="#000000"/></g><g id="change1_6"><path d="M164.2,318.474a1.493,1.493,0,0,1-.725-.188l-96.379-53.3a1.5,1.5,0,0,1,1.452-2.625l95.649,52.9,133.635-74.545-133.675-77.6L68.5,212.324a1.5,1.5,0,1,1-1.372-2.668l96.378-49.584a1.5,1.5,0,0,1,1.439.036l136.664,79.335a1.5,1.5,0,0,1-.022,2.606L164.926,318.284A1.5,1.5,0,0,1,164.2,318.474Z" fill="#000000"/></g></svg>