<?xml version="1.0" encoding="UTF-8" standalone="no"?><svg xmlns="http://www.w3.org/2000/svg" xmlns:xlink="http://www.w3.org/1999/xlink" data-name="Layer 3" fill="#000000" height="297.2" preserveAspectRatio="xMidYMid meet" version="1" viewBox="-0.0 -0.1 224.2 297.2" width="224.2" zoomAndPan="magnify"><g id="change1_1"><path d="M112.1,127.784a1.491,1.491,0,0,1-.724-.187L.775,66.575a1.5,1.5,0,0,1-.026-2.612L111.04.2a1.5,1.5,0,0,1,1.481-.012L223.434,61.941a1.5,1.5,0,0,1,.014,2.614l-110.6,63.032A1.5,1.5,0,0,1,112.1,127.784ZM4.55,65.231l107.54,59.333,107.558-61.3L111.805,3.225Z" fill="#000000"/></g><g id="change1_2"><path d="M109.087,175.858A52.813,52.813,0,0,1,62.193,98.792a1.5,1.5,0,0,1,2.664,1.381A49.233,49.233,0,0,0,59.3,123.065,49.793,49.793,0,1,0,154.27,102.11a1.5,1.5,0,0,1,2.721-1.264,52.818,52.818,0,0,1-47.9,75.012Z" fill="#000000"/></g><g id="change1_3"><path d="M112.1,219.178a1.493,1.493,0,0,1-.736-.193l-89.731-50.55a1.5,1.5,0,0,1-.079-2.565l39-25.251a1.5,1.5,0,1,1,1.631,2.517l-36.917,23.9,86.823,48.912L197.9,166.324,156.783,141.1a1.5,1.5,0,0,1,1.568-2.557l43.262,26.543a1.5,1.5,0,0,1-.033,2.578l-88.727,51.316A1.5,1.5,0,0,1,112.1,219.178Z" fill="#000000"/></g><g id="change1_4"><path d="M112.1,276.622a1.492,1.492,0,0,1-.753-.2L21.618,224.336a1.5,1.5,0,0,1-.747-1.3V167.128a1.5,1.5,0,0,1,3,0v55.048l88.213,51.2,87.245-53.094v-53.92a1.5,1.5,0,0,1,3,0v54.762a1.5,1.5,0,0,1-.72,1.282l-88.727,54A1.5,1.5,0,0,1,112.1,276.622Z" fill="#000000"/></g><g id="change1_5"><path d="M112.1,297.11a1.5,1.5,0,0,1-.761-.208L2.462,232.756a1.5,1.5,0,0,1-.739-1.276L0,65.277a1.5,1.5,0,0,1,3-.031L4.714,230.6l107.365,63.253,109.126-68.2V63.251a1.5,1.5,0,0,1,3,0V226.486a1.5,1.5,0,0,1-.705,1.272L112.9,296.882A1.5,1.5,0,0,1,112.1,297.11Z" fill="#000000"/></g></svg>