<?xml version="1.0" encoding="UTF-8" standalone="no"?><svg xmlns="http://www.w3.org/2000/svg" xmlns:xlink="http://www.w3.org/1999/xlink" data-name="Layer 2" fill="#000000" height="368" preserveAspectRatio="xMidYMid meet" version="1" viewBox="-0.0 -0.1 317.0 368.0" width="317" zoomAndPan="magnify"><g id="change1_1"><path d="M159.29,186.1a1.5,1.5,0,0,1-.761-.207L2.373,94.038a1.5,1.5,0,0,1,0-2.587L157.919.206a1.5,1.5,0,0,1,1.513,0L316.2,91.448a1.5,1.5,0,0,1,.006,2.59L160.051,185.9A1.5,1.5,0,0,1,159.29,186.1ZM6.1,92.747l153.2,90.115,153.187-90.11L158.681,3.238Z" fill="#000000"/></g><g id="change1_2"><path d="M159.29,186.1a1.5,1.5,0,0,1-.761-.207L22.886,106.1a1.5,1.5,0,0,1,.009-2.591l135.139-78.2a1.5,1.5,0,0,1,1.51,0l134.8,79a1.5,1.5,0,0,1,0,2.587l-134.3,79A1.5,1.5,0,0,1,159.29,186.1ZM26.623,104.822l132.667,78.04,131.333-77.255L158.781,28.344Z" fill="#000000"/></g><g id="change1_3"><path d="M159.964,186.1a1.5,1.5,0,0,1-.76-.207l-94.588-55.64a1.5,1.5,0,0,1,.018-2.6L157.873,74.5a1.5,1.5,0,0,1,1.5.006l93.828,54.4a1.5,1.5,0,0,1,.009,2.59l-92.48,54.4A1.5,1.5,0,0,1,159.964,186.1ZM68.37,128.983l91.594,53.879,89.505-52.65-90.86-52.679Z" fill="#000000"/></g><g id="change1_4"><path d="M159.95,164.565a1.5,1.5,0,0,1-.76-.207L99.965,129.52a1.5,1.5,0,0,1,.017-2.6l58.38-33.285a1.5,1.5,0,0,1,1.5.005l58.748,34.061a1.5,1.5,0,0,1,.009,2.591l-57.9,34.062A1.5,1.5,0,0,1,159.95,164.565Zm-56.231-36.318,56.231,33.077,54.929-32.312L159.1,96.673Z" fill="#000000"/></g><g id="change1_5"><path d="M159.29,367.979a1.505,1.505,0,0,1-.749-.2L.751,276.738A1.5,1.5,0,0,1,0,275.425L1.633,92.732a1.5,1.5,0,0,1,1.5-1.487h.014a1.5,1.5,0,0,1,1.486,1.513L3.008,274.576l156.282,90.17L313.947,275.39V92.745a1.5,1.5,0,0,1,3,0v183.51a1.5,1.5,0,0,1-.75,1.3L160.041,367.778A1.515,1.515,0,0,1,159.29,367.979Z" fill="#000000"/></g><g id="change1_6"><path d="M158.911,340.626a1.494,1.494,0,0,1-.749-.2L22.9,262.449a1.5,1.5,0,0,1-.751-1.3V104.811a1.5,1.5,0,0,1,3,0V260.282L158.911,337.4l133.175-76.7V105.605a1.5,1.5,0,0,1,3,0V261.558a1.5,1.5,0,0,1-.751,1.3L159.659,340.426A1.49,1.49,0,0,1,158.911,340.626Z" fill="#000000"/></g><g id="change1_7"><path d="M159.29,292.452a1.5,1.5,0,0,1-.734-.191L64.643,239.6a1.5,1.5,0,0,1-.766-1.309V128.962a1.5,1.5,0,0,1,3,0V237.408l92.407,51.822,91.66-52.223V130.2a1.5,1.5,0,0,1,3,0V237.879a1.5,1.5,0,0,1-.758,1.3l-93.153,53.073A1.5,1.5,0,0,1,159.29,292.452Z" fill="#000000"/></g><g id="change1_8"><path d="M315.447,277.755a1.5,1.5,0,0,1-1.5-1.5V92.745a1.5,1.5,0,0,1,3,0v183.51A1.5,1.5,0,0,1,315.447,277.755Z" fill="#000000"/></g><g id="change1_9"><path d="M159.29,367.979h0a1.5,1.5,0,0,1-1.5-1.506l.674-181.877a1.48,1.48,0,0,1,1.506-1.494,1.5,1.5,0,0,1,1.494,1.5l-.674,181.878A1.5,1.5,0,0,1,159.29,367.979Z" fill="#000000"/></g><g id="change1_10"><path d="M147.961,272.754a1.5,1.5,0,0,1-.74-.195l-70.73-40.111a1.5,1.5,0,0,1-.76-1.305V147.859a1.5,1.5,0,0,1,2.25-1.3l70.73,40.791a1.5,1.5,0,0,1,.75,1.3v82.6a1.5,1.5,0,0,1-1.5,1.5Zm-69.23-42.485,67.73,38.41V189.517l-67.73-39.061Z" fill="#000000"/></g><g id="change1_11"><path d="M170.523,272.754a1.5,1.5,0,0,1-1.5-1.515l.838-82.6a1.5,1.5,0,0,1,.737-1.276l69.07-40.791a1.5,1.5,0,0,1,2.262,1.291v84.2a1.5,1.5,0,0,1-.766,1.308l-69.908,39.193A1.491,1.491,0,0,1,170.523,272.754Zm2.329-83.242-.8,79.167,66.881-37.5v-80.7Z" fill="#000000"/></g></svg>